<?xml version="1.0" encoding="UTF-8" standalone="no"?>
<!-- Created with Inkscape (http://www.inkscape.org/) -->

<svg
   width="100mm"
   height="100mm"
   viewBox="0 0 100 100"
   version="1.1"
   id="svg1"
   inkscape:version="1.4.2 (f4327f4, 2025-05-13)"
   sodipodi:docname="icon.svg"
   xmlns:inkscape="http://www.inkscape.org/namespaces/inkscape"
   xmlns:sodipodi="http://sodipodi.sourceforge.net/DTD/sodipodi-0.dtd"
   xmlns="http://www.w3.org/2000/svg"
   xmlns:svg="http://www.w3.org/2000/svg">
  <sodipodi:namedview
     id="namedview1"
     pagecolor="#ffffff"
     bordercolor="#999999"
     borderopacity="1"
     inkscape:showpageshadow="2"
     inkscape:pageopacity="0"
     inkscape:pagecheckerboard="0"
     inkscape:deskcolor="#d1d1d1"
     inkscape:document-units="mm"
     inkscape:zoom="2.3489274"
     inkscape:cx="142.61829"
     inkscape:cy="208.18013"
     inkscape:window-width="1920"
     inkscape:window-height="991"
     inkscape:window-x="-9"
     inkscape:window-y="-9"
     inkscape:window-maximized="1"
     inkscape:current-layer="layer1" />
  <defs
     id="defs1">
    <inkscape:path-effect
       effect="powerclip"
       message=""
       id="path-effect4"
       is_visible="true"
       lpeversion="1"
       inverse="true"
       flatten="false"
       hide_clip="false" />
    <inkscape:path-effect
       effect="powerclip"
       message=""
       id="path-effect3"
       is_visible="true"
       lpeversion="1"
       inverse="true"
       flatten="false"
       hide_clip="false" />
    <clipPath
       clipPathUnits="userSpaceOnUse"
       id="clipPath3">
      <rect
         style="display:none;fill:#394d39;fill-opacity:1;stroke-width:0.246075"
         id="rect4"
         width="94.008888"
         height="92.011856"
         x="2.9955554"
         y="3.9940734"
         rx="13.141745"
         ry="12.862574"
         d="m 16.1373,3.9940734 h 67.725399 c 7.280527,0 13.141745,5.7367078 13.141745,12.8625736 v 66.286709 c 0,7.125866 -5.861218,12.862573 -13.141745,12.862573 H 16.1373 c -7.2805265,0 -13.1417446,-5.736707 -13.1417446,-12.862573 V 16.856647 c 0,-7.1258658 5.8612181,-12.8625736 13.1417446,-12.8625736 z" />
      <path
         id="lpe_path-effect4"
         style="display:block;fill:#394d39;fill-opacity:1;stroke-width:0.246075"
         class="powerclip"
         d="M -5,-5 H 105 V 105 H -5 Z m 21.1373,8.9940734 c -7.2805265,0 -13.1417446,5.7367078 -13.1417446,12.8625736 v 66.286709 c 0,7.125866 5.8612181,12.862573 13.1417446,12.862573 h 67.725399 c 7.280527,0 13.141745,-5.736707 13.141745,-12.862573 V 16.856647 c 0,-7.1258658 -5.861218,-12.8625736 -13.141745,-12.8625736 z" />
    </clipPath>
  </defs>
  <g
     inkscape:groupmode="layer"
     id="layer3"
     inkscape:label="Background">
    <rect
       style="fill:#394d39;fill-opacity:1;stroke-width:0.246075"
       id="rect2-8"
       width="94.008888"
       height="92.011856"
       x="3"
       y="4.0000005"
       rx="13.141745"
       ry="12.862574" />
  </g>
  <g
     inkscape:label="Layer 1"
     inkscape:groupmode="layer"
     id="layer1">
    <path
       style="fill:#ffffff;fill-opacity:1;stroke-width:0.432681"
       id="path2"
       sodipodi:arc-type="arc"
       sodipodi:type="arc"
       sodipodi:cx="48.029167"
       sodipodi:cy="96.920135"
       sodipodi:rx="20.5"
       sodipodi:ry="20.861799"
       sodipodi:start="3.176259"
       sodipodi:end="6.2544497"
       d="M 27.541484,96.197078 A 20.5,20.861799 0 0 1 48.089957,76.058428 20.5,20.861799 0 0 1 68.520704,96.320742"
       sodipodi:open="true" />
    <path
       style="fill:#ffffff;fill-opacity:1;stroke-width:0.333795"
       id="path4"
       sodipodi:type="arc"
       sodipodi:cx="47.970833"
       sodipodi:cy="64.029167"
       sodipodi:rx="13.5"
       sodipodi:ry="13.5"
       sodipodi:start="0"
       sodipodi:end="6.2544497"
       sodipodi:open="true"
       sodipodi:arc-type="arc"
       d="M 61.470833,64.029167 A 13.5,13.5 0 0 1 48.067815,77.528819 13.5,13.5 0 0 1 34.472226,64.223126 13.5,13.5 0 0 1 47.679907,50.532302 13.5,13.5 0 0 1 61.465259,63.64129" />
  </g>
  <g
     inkscape:groupmode="layer"
     id="layer2"
     inkscape:label="Layer 2">
    <path
       style="fill:#736d54;fill-opacity:1;stroke-width:0.264583"
       id="rect1"
       width="100"
       height="100"
       x="0"
       y="0"
       rx="13.979258"
       ry="13.979258"
       clip-path="url(#clipPath3)"
       sodipodi:type="rect"
       inkscape:path-effect="#path-effect4"
       d="M 13.979258,0 H 86.020742 C 93.765251,0 100,6.2347489 100,13.979258 V 86.020742 C 100,93.765251 93.765251,100 86.020742,100 H 13.979258 C 6.2347489,100 0,93.765251 0,86.020742 V 13.979258 C 0,6.2347489 6.2347489,0 13.979258,0 Z" />
  </g>
</svg>
